Coordinates
version=1
nRows=7
nColumns=63
inDegrees=yes

Units are S.I. units (second, meters, Newtons, ...)
If the header above contains a line with 'inDegrees', this indicates whether rotational values are in degrees (yes) or radians (no).

endheader
time	pelvis_tilt	pelvis_list	pelvis_rotation	pelvis_tx	pelvis_ty	pelvis_tz	hip_flexion_r	hip_adduction_r	hip_rotation_r	knee_angle_r	knee_angle_r_beta	ankle_angle_r	subtalar_angle_r	mtp_angle_r	hip_flexion_l	hip_adduction_l	hip_rotation_l	knee_angle_l	knee_angle_l_beta	ankle_angle_l	subtalar_angle_l	mtp_angle_l	L5_S1_Flex_Ext	L5_S1_Lat_Bending	L5_S1_axial_rotation	L4_L5_Flex_Ext	L4_L5_Lat_Bending	L4_L5_axial_rotation	L3_L4_Flex_Ext	L3_L4_Lat_Bending	L3_L4_axial_rotation	L2_L3_Flex_Ext	L2_L3_Lat_Bending	L2_L3_axial_rotation	L1_L2_Flex_Ext	L1_L2_Lat_Bending	L1_L2_axial_rotation	L1_T12_Flex_Ext	L1_T12_Lat_Bending	L1_T12_axial_rotation	Abs_r3	Abs_r2	Abs_r1	Abs_t1	Abs_t2	neck_flexion	neck_bending	neck_rotation	arm_flex_r	arm_add_r	arm_rot_r	elbow_flex_r	pro_sup_r	wrist_flex_r	wrist_dev_r	arm_flex_l	arm_add_l	arm_rot_l	elbow_flex_l	pro_sup_l	wrist_flex_l	wrist_dev_l
26.214286	-32.486266	-24.227952	66.302490	0.252829	1.014370	0.546831	57.224492	-9.158614	30.839166	39.090078	0.682251	34.860938	11.690979	0.000000	44.255061	9.747685	-37.144451	25.518513	0.445382	24.990718	1.507610	0.000000	-1.517154	-5.478948	-6.830262	-2.817507	-7.287001	-7.257154	-2.492532	-13.321514	-7.257154	-1.733955	-13.321514	-5.976480	-1.408829	-11.172671	-5.549588	-0.866902	-8.486891	-5.122697	-10.836879	-61.978956	-37.987871	0.000000	0.000000	-7.546579	21.557350	44.287816	85.614288	21.416456	178.894607	0.054128	0.861854	-69.853979	-24.546225	-41.808216	-26.040163	-56.285743	82.606124	88.661791	-10.504431	-8.295169
26.238095	-32.441732	-24.041134	66.145500	0.252566	1.014323	0.547146	57.170856	-9.113859	30.780917	39.048933	0.681532	35.016209	12.155650	0.000000	44.143831	9.700871	-37.207107	25.523994	0.445478	25.094437	1.291430	0.000000	-1.511382	-5.512259	-6.829335	-2.806788	-7.331305	-7.256169	-2.483050	-13.402507	-7.256169	-1.727359	-13.402507	-5.975668	-1.403470	-11.240599	-5.548835	-0.863604	-8.538489	-5.122001	-10.795653	-62.355777	-37.982713	0.000000	0.000000	-7.116238	21.868747	44.297146	86.203262	21.324677	179.008558	0.053720	0.885341	-69.854397	-24.556180	-41.671054	-25.426619	-56.900218	82.470092	88.667932	-10.473360	-9.398766
26.261905	-32.423503	-23.930354	66.052675	0.252465	1.014240	0.547647	57.175649	-9.091218	30.715955	39.019287	0.681015	35.141431	12.547169	0.000000	44.094533	9.653039	-37.296605	25.551024	0.445949	25.104937	1.217313	0.000000	-1.506990	-5.542330	-6.826566	-2.798631	-7.371299	-7.253226	-2.475834	-13.475622	-7.253226	-1.722339	-13.475622	-5.973245	-1.399391	-11.301920	-5.546585	-0.861094	-8.585070	-5.119924	-10.764279	-62.695950	-37.967310	0.000000	0.000000	-6.709322	22.272865	44.308645	86.722701	21.184705	179.006090	0.053471	0.904700	-69.854444	-24.562477	-41.525762	-25.012696	-57.413792	82.449235	88.685846	-10.454481	-10.419417
26.285714	-32.437546	-23.880470	66.000753	0.252562	1.014188	0.548246	57.223331	-9.092898	30.648826	38.973772	0.680221	35.233081	12.903342	0.000000	44.087292	9.613321	-37.427854	25.570114	0.446283	25.023114	1.276677	0.000000	-1.503188	-5.570884	-6.813914	-2.791571	-7.409276	-7.239783	-2.469588	-13.545047	-7.239783	-1.717994	-13.545047	-5.962174	-1.395860	-11.360147	-5.536305	-0.858922	-8.629299	-5.110435	-10.737122	-63.018955	-37.896943	0.000000	0.000000	-6.331653	22.759658	44.327325	87.150502	20.991086	178.831525	0.053440	0.919259	-69.853893	-24.565188	-41.384024	-24.820560	-57.790048	82.509317	88.709646	-10.461226	-11.360497
26.309524	-32.444276	-23.926316	66.054707	0.252749	1.014127	0.548903	57.316990	-9.119405	30.551651	38.928323	0.679427	35.299521	13.144190	0.000000	44.149691	9.577887	-37.525188	25.608885	0.446959	24.881729	1.474831	0.000000	-1.501521	-5.589909	-6.802179	-2.788475	-7.434579	-7.227315	-2.466849	-13.591304	-7.227315	-1.716088	-13.591304	-5.951906	-1.394312	-11.398942	-5.526770	-0.857969	-8.658769	-5.101634	-10.725214	-63.234166	-37.831678	0.000000	0.000000	-6.001866	23.279678	44.357171	87.477444	20.759260	178.544835	0.053583	0.927499	-69.852729	-24.563982	-41.243520	-24.813729	-57.997818	82.619451	88.737892	-10.542204	-12.171204
26.333333	-32.459447	-24.031494	66.177747	0.253011	1.014073	0.549577	57.444778	-9.169469	30.454247	38.897678	0.678893	35.341927	13.307125	0.000000	44.257506	9.561776	-37.595665	25.657221	0.447803	24.714233	1.758377	0.000000	-1.501278	-5.601206	-6.790105	-2.788023	-7.449604	-7.214486	-2.466449	-13.618773	-7.214486	-1.715810	-13.618773	-5.941342	-1.394086	-11.421980	-5.516960	-0.857830	-8.676269	-5.092579	-10.723476	-63.361966	-37.764527	0.000000	0.000000	-5.749429	23.799027	44.401865	87.712611	20.523466	178.128880	0.053866	0.931155	-69.851194	-24.560751	-41.116939	-24.985368	-58.034986	82.723474	88.772985	-10.693442	-12.906489
26.357143	-32.492088	-24.130822	66.311971	0.253442	1.014090	0.550289	57.553045	-9.224524	30.386714	38.868651	0.678386	35.361628	13.406683	0.000000	44.346260	9.539365	-37.733297	25.713087	0.448778	24.538131	2.182449	0.000000	-1.503916	-5.611316	-6.782072	-2.792922	-7.463050	-7.205951	-2.470784	-13.643353	-7.205951	-1.718826	-13.643353	-5.934313	-1.396536	-11.442595	-5.510433	-0.859338	-8.691928	-5.086554	-10.742321	-63.476327	-37.719847	0.000000	0.000000	-5.559673	24.301295	44.449298	87.912518	20.346636	177.609816	0.054240	0.943562	-69.849414	-24.557699	-41.089690	-25.271165	-58.009148	82.882983	88.798385	-10.974601	-13.515484
